mtllib Reviver.mtl
v 1075.308105 188.901001 0.000000
v 1072.694702 186.270508 0.000000
v 997.211182 377.200928 0.000000
v 915.002991 343.001953 0.000000
v 1050.994629 787.005493 0.000000
v 915.002991 922.997070 0.000000
v 1236.805908 832.115967 0.000000
v 1198.999756 922.997070 0.000000
v 1491.510376 1088.006836 0.000000
v 1363.001343 1087.998535 0.000000
v 1191.002319 1261.001953 0.000000
v 1303.291260 1307.319702 0.000000
v 1191.002319 1577.992676 0.000000
v 1491.479736 1118.774292 0.000000
v 1650.995117 1119.000000 0.000000
v 1234.309204 831.079224 0.000000
v 1363.997681 831.001709 0.000000
v 1215.892456 787.028320 0.000000
v 1542.992432 651.002686 0.000000
v 997.589294 733.588989 0.000000
v 1080.000000 651.002686 0.000000
v 1078.997314 180.007446 0.000000
v 785.731934 445.112549 0.000000
v 781.305298 440.676270 0.000000
v 491.363403 889.216431 0.000000
v 332.004578 889.000488 0.000000
v 748.719849 1176.930054 0.000000
v 619.002869 1176.998535 0.000000
v 767.049561 1220.996582 0.000000
v 440.007294 1356.997803 0.000000
v 985.410828 1274.411011 0.000000
v 902.999695 1356.997803 0.000000
v 904.002319 1827.992920 0.000000
v 985.789307 1630.801514 0.000000
v 1067.997559 1664.998413 0.000000
v 931.989014 1220.996582 0.000000
v 1067.997559 1085.002441 0.000000
v 783.999878 1085.002441 0.000000
v 491.336914 919.807129 0.000000
v 619.997375 920.001831 0.000000
v 679.428345 701.357788 0.000000
v 791.997314 747.999268 0.000000
v 791.997314 430.007568 0.000000
v 746.194092 1175.883545 0.000000
v 1078.997314 180.007446 0.000000
v 1072.694702 186.270508 0.000000
v 915.002991 343.001953 0.000000
v 1078.997314 180.007446 -200.000000
v 1072.694702 186.270508 -200.000000
v 915.002991 343.001953 -200.000000
v 915.002991 343.001953 0.000000
v 915.002991 922.997070 0.000000
v 915.002991 343.001953 -200.000000
v 915.002991 922.997070 -200.000000
v 915.002991 922.997070 0.000000
v 1198.999756 922.997070 0.000000
v 915.002991 922.997070 -200.000000
v 1198.999756 922.997070 -200.000000
v 1198.999756 922.997070 0.000000
v 1363.001343 1087.998535 0.000000
v 1198.999756 922.997070 -200.000000
v 1363.001343 1087.998535 -200.000000
v 1363.001343 1087.998535 0.000000
v 1191.002319 1261.001953 0.000000
v 1363.001343 1087.998535 -200.000000
v 1191.002319 1261.001953 -200.000000
v 1191.002319 1261.001953 0.000000
v 1191.002319 1577.992676 0.000000
v 1191.002319 1261.001953 -200.000000
v 1191.002319 1577.992676 -200.000000
v 1191.002319 1577.992676 0.000000
v 1650.995117 1119.000000 0.000000
v 1191.002319 1577.992676 -200.000000
v 1650.995117 1119.000000 -200.000000
v 1650.995117 1119.000000 0.000000
v 1363.997681 831.001709 0.000000
v 1650.995117 1119.000000 -200.000000
v 1363.997681 831.001709 -200.000000
v 1363.997681 831.001709 0.000000
v 1542.992432 651.002686 0.000000
v 1363.997681 831.001709 -200.000000
v 1542.992432 651.002686 -200.000000
v 1542.992432 651.002686 0.000000
v 1080.000000 651.002686 0.000000
v 1542.992432 651.002686 -200.000000
v 1080.000000 651.002686 -200.000000
v 1080.000000 651.002686 0.000000
v 1078.997314 180.007446 0.000000
v 1080.000000 651.002686 -200.000000
v 1078.997314 180.007446 -200.000000
v 791.997314 430.007568 0.000000
v 781.305298 440.676270 0.000000
v 332.004578 889.000488 0.000000
v 791.997314 430.007568 -200.000000
v 781.305298 440.676270 -200.000000
v 332.004578 889.000488 -200.000000
v 332.004578 889.000488 0.000000
v 619.002869 1176.998535 0.000000
v 332.004578 889.000488 -200.000000
v 619.002869 1176.998535 -200.000000
v 619.002869 1176.998535 0.000000
v 440.007294 1356.997803 0.000000
v 619.002869 1176.998535 -200.000000
v 440.007294 1356.997803 -200.000000
v 440.007294 1356.997803 0.000000
v 902.999695 1356.997803 0.000000
v 440.007294 1356.997803 -200.000000
v 902.999695 1356.997803 -200.000000
v 902.999695 1356.997803 0.000000
v 904.002319 1827.992920 0.000000
v 902.999695 1356.997803 -200.000000
v 904.002319 1827.992920 -200.000000
v 904.002319 1827.992920 0.000000
v 1067.997559 1664.998413 0.000000
v 904.002319 1827.992920 -200.000000
v 1067.997559 1664.998413 -200.000000
v 1067.997559 1664.998413 0.000000
v 1067.997559 1085.002441 0.000000
v 1067.997559 1664.998413 -200.000000
v 1067.997559 1085.002441 -200.000000
v 1067.997559 1085.002441 0.000000
v 783.999878 1085.002441 0.000000
v 1067.997559 1085.002441 -200.000000
v 783.999878 1085.002441 -200.000000
v 783.999878 1085.002441 0.000000
v 619.997375 920.001831 0.000000
v 783.999878 1085.002441 -200.000000
v 619.997375 920.001831 -200.000000
v 619.997375 920.001831 0.000000
v 791.997314 747.999268 0.000000
v 619.997375 920.001831 -200.000000
v 791.997314 747.999268 -200.000000
v 791.997314 747.999268 0.000000
v 791.997314 430.007568 0.000000
v 791.997314 747.999268 -200.000000
v 791.997314 430.007568 -200.000000
v 1075.308105 188.901001 -200.000000
v 1072.694702 186.270508 -200.000000
v 997.211182 377.200928 -200.000000
v 915.002991 343.001953 -200.000000
v 1050.994629 787.005493 -200.000000
v 915.002991 922.997070 -200.000000
v 1236.805908 832.115967 -200.000000
v 1198.999756 922.997070 -200.000000
v 1491.510376 1088.006836 -200.000000
v 1363.001343 1087.998535 -200.000000
v 1191.002319 1261.001953 -200.000000
v 1303.291260 1307.319702 -200.000000
v 1191.002319 1577.992676 -200.000000
v 1491.479736 1118.774292 -200.000000
v 1650.995117 1119.000000 -200.000000
v 1234.309204 831.079224 -200.000000
v 1363.997681 831.001709 -200.000000
v 1215.892456 787.028320 -200.000000
v 1542.992432 651.002686 -200.000000
v 997.589294 733.588989 -200.000000
v 1080.000000 651.002686 -200.000000
v 1078.997314 180.007446 -200.000000
v 785.731934 445.112549 -200.000000
v 781.305298 440.676270 -200.000000
v 491.363403 889.216431 -200.000000
v 332.004578 889.000488 -200.000000
v 748.719849 1176.930054 -200.000000
v 619.002869 1176.998535 -200.000000
v 767.049561 1220.996582 -200.000000
v 440.007294 1356.997803 -200.000000
v 985.410828 1274.411011 -200.000000
v 902.999695 1356.997803 -200.000000
v 904.002319 1827.992920 -200.000000
v 985.789307 1630.801514 -200.000000
v 1067.997559 1664.998413 -200.000000
v 931.989014 1220.996582 -200.000000
v 1067.997559 1085.002441 -200.000000
v 783.999878 1085.002441 -200.000000
v 491.336914 919.807129 -200.000000
v 619.997375 920.001831 -200.000000
v 679.428345 701.357788 -200.000000
v 791.997314 747.999268 -200.000000
v 791.997314 430.007568 -200.000000
v 746.194092 1175.883545 -200.000000
vt 0.563540 0.005397
vt 0.561558 0.003800
vt 0.504330 0.119657
vt 0.442004 0.098905
vt 0.545106 0.368327
vt 0.442004 0.450847
vt 0.685980 0.395700
vt 0.657317 0.450847
vt 0.879086 0.550975
vt 0.781656 0.550970
vt 0.651254 0.655949
vt 0.736386 0.684055
vt 0.651254 0.848300
vt 0.879063 0.569645
vt 1.000000 0.569782
vt 0.684087 0.395071
vt 0.782411 0.395024
vt 0.670125 0.368341
vt 0.918117 0.285801
vt 0.504617 0.335914
vt 0.567097 0.285801
vt 0.566337 0.000000
vt 0.343996 0.160866
vt 0.340640 0.158174
vt 0.120819 0.430349
vt 0.000000 0.430218
vt 0.315935 0.604934
vt 0.217589 0.604976
vt 0.329832 0.631674
vt 0.081883 0.714199
vt 0.495384 0.664086
vt 0.432903 0.714199
vt 0.433663 1.000000
vt 0.495671 0.880344
vt 0.557997 0.901095
vt 0.454882 0.631674
vt 0.557997 0.549152
vt 0.342683 0.549152
vt 0.120799 0.448912
vt 0.218343 0.449030
vt 0.263401 0.316356
vt 0.348746 0.344658
vt 0.348746 0.151700
vt 0.314020 0.604299
vt 1.000000 1.000000
vt 0.998925 1.000000
vt 0.972029 1.000000
vt 1.000000 0.000000
vt 0.998925 0.000000
vt 0.972029 0.000000
vt 0.972029 1.000000
vt 0.901866 1.000000
vt 0.972029 0.000000
vt 0.901866 0.000000
vt 0.901866 1.000000
vt 0.867510 1.000000
vt 0.901866 0.000000
vt 0.867510 0.000000
vt 0.867510 1.000000
vt 0.839367 1.000000
vt 0.867510 0.000000
vt 0.839367 0.000000
vt 0.839367 1.000000
vt 0.809856 1.000000
vt 0.839367 0.000000
vt 0.809856 0.000000
vt 0.809856 1.000000
vt 0.771508 1.000000
vt 0.809856 0.000000
vt 0.771508 0.000000
vt 0.771508 1.000000
vt 0.692898 1.000000
vt 0.771508 0.000000
vt 0.692898 0.000000
vt 0.692898 1.000000
vt 0.643713 1.000000
vt 0.692898 0.000000
vt 0.643713 0.000000
vt 0.643713 1.000000
vt 0.613004 1.000000
vt 0.643713 0.000000
vt 0.613004 0.000000
vt 0.613004 1.000000
vt 0.556995 1.000000
vt 0.613004 0.000000
vt 0.556995 0.000000
vt 0.556995 1.000000
vt 0.500018 1.000000
vt 0.556995 0.000000
vt 0.500018 0.000000
vt 0.500018 1.000000
vt 0.498191 1.000000
vt 0.421408 1.000000
vt 0.500018 0.000000
vt 0.498191 0.000000
vt 0.421408 0.000000
vt 0.421408 1.000000
vt 0.372222 1.000000
vt 0.421408 0.000000
vt 0.372222 0.000000
vt 0.372222 1.000000
vt 0.341514 1.000000
vt 0.372222 0.000000
vt 0.341514 0.000000
vt 0.341514 1.000000
vt 0.285505 1.000000
vt 0.341514 0.000000
vt 0.285505 0.000000
vt 0.285505 1.000000
vt 0.228527 1.000000
vt 0.285505 0.000000
vt 0.228527 0.000000
vt 0.228527 1.000000
vt 0.200556 1.000000
vt 0.228527 0.000000
vt 0.200556 0.000000
vt 0.200556 1.000000
vt 0.130393 1.000000
vt 0.200556 0.000000
vt 0.130393 0.000000
vt 0.130393 1.000000
vt 0.096037 1.000000
vt 0.130393 0.000000
vt 0.096037 0.000000
vt 0.096037 1.000000
vt 0.067894 1.000000
vt 0.096037 0.000000
vt 0.067894 0.000000
vt 0.067894 1.000000
vt 0.038468 1.000000
vt 0.067894 0.000000
vt 0.038468 0.000000
vt 0.038468 1.000000
vt -0.000000 1.000000
vt 0.038468 0.000000
vt -0.000000 0.000000
vt 0.563540 0.005397
vt 0.561558 0.003800
vt 0.504330 0.119657
vt 0.442004 0.098905
vt 0.545106 0.368327
vt 0.442004 0.450847
vt 0.685980 0.395700
vt 0.657317 0.450847
vt 0.879086 0.550975
vt 0.781656 0.550970
vt 0.651254 0.655949
vt 0.736386 0.684055
vt 0.651254 0.848300
vt 0.879063 0.569645
vt 1.000000 0.569782
vt 0.684087 0.395071
vt 0.782411 0.395024
vt 0.670125 0.368341
vt 0.918117 0.285801
vt 0.504617 0.335914
vt 0.567097 0.285801
vt 0.566337 0.000000
vt 0.343996 0.160866
vt 0.340640 0.158174
vt 0.120819 0.430349
vt 0.000000 0.430218
vt 0.315935 0.604934
vt 0.217589 0.604976
vt 0.329832 0.631674
vt 0.081883 0.714199
vt 0.495384 0.664086
vt 0.432903 0.714199
vt 0.433663 1.000000
vt 0.495671 0.880344
vt 0.557997 0.901095
vt 0.454882 0.631674
vt 0.557997 0.549152
vt 0.342683 0.549152
vt 0.120799 0.448912
vt 0.218343 0.449030
vt 0.263401 0.316356
vt 0.348746 0.344658
vt 0.348746 0.151700
vt 0.314020 0.604299
vn 0.000000 0.000000 1.000000
vn 0.000000 0.000000 1.000000
vn 0.000000 0.000000 1.000000
vn 0.000000 0.000000 1.000000
vn 0.000000 0.000000 1.000000
vn 0.000000 0.000000 1.000000
vn 0.000000 0.000000 1.000000
vn 0.000000 0.000000 1.000000
vn 0.000000 0.000000 1.000000
vn 0.000000 0.000000 1.000000
vn 0.000000 0.000000 1.000000
vn 0.000000 0.000000 1.000000
vn 0.000000 0.000000 1.000000
vn 0.000000 0.000000 1.000000
vn 0.000000 0.000000 1.000000
vn 0.000000 0.000000 1.000000
vn 0.000000 0.000000 1.000000
vn 0.000000 0.000000 1.000000
vn 0.000000 0.000000 1.000000
vn 0.000000 0.000000 1.000000
vn 0.000000 0.000000 1.000000
vn 0.000000 0.000000 1.000000
vn 0.000000 0.000000 1.000000
vn 0.000000 0.000000 1.000000
vn 0.000000 0.000000 1.000000
vn 0.000000 0.000000 1.000000
vn 0.000000 0.000000 1.000000
vn 0.000000 0.000000 1.000000
vn 0.000000 0.000000 1.000000
vn 0.000000 0.000000 1.000000
vn 0.000000 0.000000 1.000000
vn 0.000000 0.000000 1.000000
vn 0.000000 0.000000 1.000000
vn 0.000000 0.000000 1.000000
vn 0.000000 0.000000 1.000000
vn 0.000000 0.000000 1.000000
vn 0.000000 0.000000 1.000000
vn 0.000000 0.000000 1.000000
vn 0.000000 0.000000 1.000000
vn 0.000000 0.000000 1.000000
vn 0.000000 0.000000 1.000000
vn 0.000000 0.000000 1.000000
vn 0.000000 0.000000 1.000000
vn 0.000000 0.000000 1.000000
vn -0.704878 -0.709329 0.000000
vn -0.704911 -0.709296 0.000000
vn -0.704944 -0.709263 0.000000
vn -0.704878 -0.709329 0.000000
vn -0.704911 -0.709296 0.000000
vn -0.704944 -0.709263 0.000000
vn -1.000000 0.000000 0.000000
vn -1.000000 0.000000 0.000000
vn -1.000000 0.000000 0.000000
vn -1.000000 0.000000 0.000000
vn 0.000000 1.000000 0.000000
vn 0.000000 1.000000 0.000000
vn 0.000000 1.000000 0.000000
vn 0.000000 1.000000 0.000000
vn -0.709253 0.704955 0.000000
vn -0.709253 0.704955 0.000000
vn -0.709253 0.704955 0.000000
vn -0.709253 0.704955 0.000000
vn -0.709162 -0.705045 0.000000
vn -0.709162 -0.705045 0.000000
vn -0.709162 -0.705045 0.000000
vn -0.709162 -0.705045 0.000000
vn -1.000000 0.000000 0.000000
vn -1.000000 0.000000 0.000000
vn -1.000000 0.000000 0.000000
vn -1.000000 0.000000 0.000000
vn 0.706337 0.707876 0.000000
vn 0.706337 0.707876 0.000000
vn 0.706337 0.707876 0.000000
vn 0.706337 0.707876 0.000000
vn 0.708336 -0.705875 0.000000
vn 0.708336 -0.705875 0.000000
vn 0.708336 -0.705875 0.000000
vn 0.708336 -0.705875 0.000000
vn 0.709082 0.705126 0.000000
vn 0.709082 0.705126 0.000000
vn 0.709082 0.705126 0.000000
vn 0.709082 0.705126 0.000000
vn 0.000000 -1.000000 0.000000
vn 0.000000 -1.000000 0.000000
vn 0.000000 -1.000000 0.000000
vn 0.000000 -1.000000 0.000000
vn 0.999998 -0.002129 0.000000
vn 0.999998 -0.002129 0.000000
vn 0.999998 -0.002129 0.000000
vn 0.999998 -0.002129 0.000000
vn -0.706335 -0.707878 0.000000
vn -0.706336 -0.707877 0.000000
vn -0.706337 -0.707876 0.000000
vn -0.706335 -0.707878 0.000000
vn -0.706336 -0.707877 0.000000
vn -0.706337 -0.707876 0.000000
vn -0.708335 0.705876 0.000000
vn -0.708335 0.705876 0.000000
vn -0.708335 0.705876 0.000000
vn -0.708335 0.705876 0.000000
vn -0.709081 -0.705127 0.000000
vn -0.709081 -0.705127 0.000000
vn -0.709081 -0.705127 0.000000
vn -0.709081 -0.705127 0.000000
vn 0.000000 1.000000 0.000000
vn 0.000000 1.000000 0.000000
vn 0.000000 1.000000 0.000000
vn 0.000000 1.000000 0.000000
vn -0.999998 0.002129 0.000000
vn -0.999998 0.002129 0.000000
vn -0.999998 0.002129 0.000000
vn -0.999998 0.002129 0.000000
vn 0.704939 0.709268 0.000000
vn 0.704939 0.709268 0.000000
vn 0.704939 0.709268 0.000000
vn 0.704939 0.709268 0.000000
vn 1.000000 0.000000 0.000000
vn 1.000000 0.000000 0.000000
vn 1.000000 0.000000 0.000000
vn 1.000000 0.000000 0.000000
vn 0.000000 -1.000000 0.000000
vn 0.000000 -1.000000 0.000000
vn 0.000000 -1.000000 0.000000
vn 0.000000 -1.000000 0.000000
vn 0.709249 -0.704959 0.000000
vn 0.709249 -0.704959 0.000000
vn 0.709249 -0.704959 0.000000
vn 0.709249 -0.704959 0.000000
vn 0.707112 0.707101 0.000000
vn 0.707112 0.707101 0.000000
vn 0.707112 0.707101 0.000000
vn 0.707112 0.707101 0.000000
vn 1.000000 0.000000 0.000000
vn 1.000000 0.000000 0.000000
vn 1.000000 0.000000 0.000000
vn 1.000000 0.000000 0.000000
vn 0.000000 0.000000 -1.000000
vn 0.000000 0.000000 -1.000000
vn 0.000000 0.000000 -1.000000
vn 0.000000 0.000000 -1.000000
vn 0.000000 0.000000 -1.000000
vn 0.000000 0.000000 -1.000000
vn 0.000000 0.000000 -1.000000
vn 0.000000 0.000000 -1.000000
vn 0.000000 0.000000 -1.000000
vn 0.000000 0.000000 -1.000000
vn 0.000000 0.000000 -1.000000
vn 0.000000 0.000000 -1.000000
vn 0.000000 0.000000 -1.000000
vn 0.000000 0.000000 -1.000000
vn 0.000000 0.000000 -1.000000
vn 0.000000 0.000000 -1.000000
vn 0.000000 0.000000 -1.000000
vn 0.000000 0.000000 -1.000000
vn 0.000000 0.000000 -1.000000
vn 0.000000 0.000000 -1.000000
vn 0.000000 0.000000 -1.000000
vn 0.000000 0.000000 -1.000000
vn 0.000000 0.000000 -1.000000
vn 0.000000 0.000000 -1.000000
vn 0.000000 0.000000 -1.000000
vn 0.000000 0.000000 -1.000000
vn 0.000000 0.000000 -1.000000
vn 0.000000 0.000000 -1.000000
vn 0.000000 0.000000 -1.000000
vn 0.000000 0.000000 -1.000000
vn 0.000000 0.000000 -1.000000
vn 0.000000 0.000000 -1.000000
vn 0.000000 0.000000 -1.000000
vn 0.000000 0.000000 -1.000000
vn 0.000000 0.000000 -1.000000
vn 0.000000 0.000000 -1.000000
vn 0.000000 0.000000 -1.000000
vn 0.000000 0.000000 -1.000000
vn 0.000000 0.000000 -1.000000
vn 0.000000 0.000000 -1.000000
vn 0.000000 0.000000 -1.000000
vn 0.000000 0.000000 -1.000000
vn 0.000000 0.000000 -1.000000
vn 0.000000 0.000000 -1.000000
usemtl Layer 3 copy Front Inflation Material
f 3/3/3 4/4/4 1/1/1
f 5/5/5 6/6/6 20/20/20
f 7/7/7 8/8/8 16/16/16
f 9/9/9 10/10/10 7/7/7
f 14/14/14 12/12/12 10/10/10
f 13/13/13 11/11/11 12/12/12
f 14/14/14 15/15/15 12/12/12
f 16/16/16 17/17/17 7/7/7
f 19/19/19 17/17/17 18/18/18
f 20/20/20 21/21/21 5/5/5
f 3/3/3 1/1/1 21/21/21
f 2/2/2 22/22/22 1/1/1
f 25/25/25 26/26/26 41/41/41
f 27/27/27 28/28/28 44/44/44
f 30/30/30 28/28/28 29/29/29
f 31/31/31 32/32/32 36/36/36
f 33/33/33 32/32/32 34/34/34
f 35/35/35 33/33/33 34/34/34
f 36/36/36 37/37/37 31/31/31
f 44/44/44 38/38/38 27/27/27
f 39/39/39 40/40/40 44/44/44
f 42/42/42 40/40/40 41/41/41
f 43/43/43 42/42/42 23/23/23
f 24/24/24 43/43/43 23/23/23
f 2/2/2 1/1/1 4/4/4
f 6/6/6 4/4/4 20/20/20
f 3/3/3 20/20/20 4/4/4
f 16/16/16 8/8/8 5/5/5
f 18/18/18 16/16/16 5/5/5
f 6/6/6 5/5/5 8/8/8
f 8/8/8 7/7/7 10/10/10
f 9/9/9 14/14/14 10/10/10
f 11/11/11 10/10/10 12/12/12
f 13/13/13 12/12/12 15/15/15
f 7/7/7 17/17/17 9/9/9
f 17/17/17 15/15/15 9/9/9
f 14/14/14 9/9/9 15/15/15
f 16/16/16 18/18/18 17/17/17
f 5/5/5 21/21/21 18/18/18
f 19/19/19 18/18/18 21/21/21
f 20/20/20 3/3/3 21/21/21
f 22/22/22 21/21/21 1/1/1
f 41/41/41 26/26/26 23/23/23
f 24/24/24 23/23/23 26/26/26
f 44/44/44 28/28/28 39/39/39
f 28/28/28 26/26/26 39/39/39
f 25/25/25 39/39/39 26/26/26
f 27/27/27 29/29/29 28/28/28
f 36/36/36 32/32/32 29/29/29
f 30/30/30 29/29/29 32/32/32
f 31/31/31 34/34/34 32/32/32
f 37/37/37 35/35/35 31/31/31
f 34/34/34 31/31/31 35/35/35
f 27/27/27 38/38/38 36/36/36
f 29/29/29 27/27/27 36/36/36
f 37/37/37 36/36/36 38/38/38
f 38/38/38 44/44/44 40/40/40
f 41/41/41 40/40/40 25/25/25
f 39/39/39 25/25/25 40/40/40
f 41/41/41 23/23/23 42/42/42
usemtl Layer 3 copy Front Bevel Material
f 1/1/1 1/1/1 1/1/1
usemtl Layer 3 copy Extrusion Material
f 48/48/48 45/45/45 46/46/46
f 48/48/48 46/46/46 49/49/49
f 49/49/49 46/46/46 47/47/47
f 49/49/49 47/47/47 50/50/50
f 53/53/53 51/51/51 52/52/52
f 53/53/53 52/52/52 54/54/54
f 57/57/57 55/55/55 56/56/56
f 57/57/57 56/56/56 58/58/58
f 61/61/61 59/59/59 60/60/60
f 61/61/61 60/60/60 62/62/62
f 65/65/65 63/63/63 64/64/64
f 65/65/65 64/64/64 66/66/66
f 69/69/69 67/67/67 68/68/68
f 69/69/69 68/68/68 70/70/70
f 73/73/73 71/71/71 72/72/72
f 73/73/73 72/72/72 74/74/74
f 77/77/77 75/75/75 76/76/76
f 77/77/77 76/76/76 78/78/78
f 81/81/81 79/79/79 80/80/80
f 81/81/81 80/80/80 82/82/82
f 85/85/85 83/83/83 84/84/84
f 85/85/85 84/84/84 86/86/86
f 89/89/89 87/87/87 88/88/88
f 89/89/89 88/88/88 90/90/90
f 94/94/94 91/91/91 92/92/92
f 94/94/94 92/92/92 95/95/95
f 95/95/95 92/92/92 93/93/93
f 95/95/95 93/93/93 96/96/96
f 99/99/99 97/97/97 98/98/98
f 99/99/99 98/98/98 100/100/100
f 103/103/103 101/101/101 102/102/102
f 103/103/103 102/102/102 104/104/104
f 107/107/107 105/105/105 106/106/106
f 107/107/107 106/106/106 108/108/108
f 111/111/111 109/109/109 110/110/110
f 111/111/111 110/110/110 112/112/112
f 115/115/115 113/113/113 114/114/114
f 115/115/115 114/114/114 116/116/116
f 119/119/119 117/117/117 118/118/118
f 119/119/119 118/118/118 120/120/120
f 123/123/123 121/121/121 122/122/122
f 123/123/123 122/122/122 124/124/124
f 127/127/127 125/125/125 126/126/126
f 127/127/127 126/126/126 128/128/128
f 131/131/131 129/129/129 130/130/130
f 131/131/131 130/130/130 132/132/132
f 135/135/135 133/133/133 134/134/134
f 135/135/135 134/134/134 136/136/136
usemtl Layer 3 copy Back Bevel Material
f 1/1/1 1/1/1 1/1/1
usemtl Layer 3 copy Back Inflation Material
f 140/140/140 139/139/139 137/137/137
f 142/142/142 141/141/141 156/156/156
f 144/144/144 143/143/143 152/152/152
f 146/146/146 145/145/145 143/143/143
f 148/148/148 150/150/150 146/146/146
f 147/147/147 149/149/149 148/148/148
f 151/151/151 150/150/150 148/148/148
f 153/153/153 152/152/152 143/143/143
f 153/153/153 155/155/155 154/154/154
f 157/157/157 156/156/156 141/141/141
f 137/137/137 139/139/139 157/157/157
f 158/158/158 138/138/138 137/137/137
f 162/162/162 161/161/161 177/177/177
f 164/164/164 163/163/163 180/180/180
f 164/164/164 166/166/166 165/165/165
f 168/168/168 167/167/167 172/172/172
f 168/168/168 169/169/169 170/170/170
f 169/169/169 171/171/171 170/170/170
f 173/173/173 172/172/172 167/167/167
f 174/174/174 180/180/180 163/163/163
f 176/176/176 175/175/175 180/180/180
f 176/176/176 178/178/178 177/177/177
f 178/178/178 179/179/179 159/159/159
f 179/179/179 160/160/160 159/159/159
f 137/137/137 138/138/138 140/140/140
f 140/140/140 142/142/142 156/156/156
f 156/156/156 139/139/139 140/140/140
f 144/144/144 152/152/152 141/141/141
f 152/152/152 154/154/154 141/141/141
f 141/141/141 142/142/142 144/144/144
f 143/143/143 144/144/144 146/146/146
f 150/150/150 145/145/145 146/146/146
f 146/146/146 147/147/147 148/148/148
f 148/148/148 149/149/149 151/151/151
f 153/153/153 143/143/143 145/145/145
f 151/151/151 153/153/153 145/145/145
f 145/145/145 150/150/150 151/151/151
f 154/154/154 152/152/152 153/153/153
f 157/157/157 141/141/141 154/154/154
f 154/154/154 155/155/155 157/157/157
f 139/139/139 156/156/156 157/157/157
f 157/157/157 158/158/158 137/137/137
f 162/162/162 177/177/177 159/159/159
f 159/159/159 160/160/160 162/162/162
f 164/164/164 180/180/180 175/175/175
f 162/162/162 164/164/164 175/175/175
f 175/175/175 161/161/161 162/162/162
f 165/165/165 163/163/163 164/164/164
f 168/168/168 172/172/172 165/165/165
f 165/165/165 166/166/166 168/168/168
f 170/170/170 167/167/167 168/168/168
f 171/171/171 173/173/173 167/167/167
f 167/167/167 170/170/170 171/171/171
f 174/174/174 163/163/163 172/172/172
f 163/163/163 165/165/165 172/172/172
f 172/172/172 173/173/173 174/174/174
f 180/180/180 174/174/174 176/176/176
f 176/176/176 177/177/177 161/161/161
f 161/161/161 175/175/175 176/176/176
f 159/159/159 177/177/177 178/178/178
